<svg xmlns="http://www.w3.org/2000/svg" viewBox="0 0 900 1200" role="img" aria-label="Apex Rapid Video cinematic creator interface">
<defs>
 <linearGradient id="bg" x1="0" y1="0" x2="1" y2="1"><stop stop-color="#292825"/><stop offset=".48" stop-color="#111113"/><stop offset="1" stop-color="#050506"/></linearGradient>
 <linearGradient id="gold" x1="0" y1="0" x2="1" y2="1"><stop stop-color="#f0d09a"/><stop offset="1" stop-color="#765535"/></linearGradient>
 <linearGradient id="red" x1="0" y1="0" x2="1" y2="1"><stop stop-color="#ff432a"/><stop offset="1" stop-color="#c91e0d"/></linearGradient>
 <filter id="shadow"><feDropShadow dx="0" dy="30" stdDeviation="28" flood-opacity=".55"/></filter>
</defs>
<rect width="900" height="1200" rx="48" fill="url(#bg)"/>
<rect x="54" y="54" width="792" height="1092" rx="38" fill="#09090a" stroke="#ffffff" stroke-opacity=".14"/>
<text x="95" y="142" fill="#f7f6f1" font-family="Arial,sans-serif" font-size="70" font-weight="900" letter-spacing="-3">APEX</text>
<text x="98" y="174" fill="#9d9b94" font-family="Arial,sans-serif" font-size="17" font-weight="700" letter-spacing="4">RAPID VIDEO</text>
<rect x="626" y="92" width="160" height="38" rx="19" fill="#ff321c"/><text x="706" y="117" text-anchor="middle" fill="white" font-family="Arial,sans-serif" font-size="14" font-weight="900">10 SEC PROOF</text>
<rect x="94" y="216" width="712" height="548" rx="30" fill="#111114" stroke="#fff" stroke-opacity=".13"/>
<ellipse cx="450" cy="460" rx="240" ry="245" fill="url(#gold)" opacity=".16"/>
<path d="M330 675 C315 580 330 470 380 415 C402 390 407 340 450 330 C493 340 498 390 520 415 C570 470 585 580 570 675 Z" fill="#0b0b0c"/>
<path d="M371 433 Q450 350 529 433 Q520 392 450 360 Q380 392 371 433Z" fill="#202023"/>
<path d="M402 437 Q450 395 498 437 L486 520 Q450 555 414 520Z" fill="#161618"/>
<path d="M417 466 L444 456 L450 474 L423 482Z M483 466 L456 456 L450 474 L477 482Z" fill="#d6b27a" opacity=".8"/>
<path d="M363 600 Q450 555 537 600 L572 710 L328 710Z" fill="url(#gold)" opacity=".22"/>
<circle cx="450" cy="610" r="155" fill="none" stroke="#d6b27a" stroke-opacity=".18"/>
<text x="120" y="805" fill="#85837d" font-family="Arial,sans-serif" font-size="14" font-weight="800" letter-spacing="3">FEATURED OUTPUT</text>
<text x="120" y="862" fill="#f7f6f1" font-family="Arial,sans-serif" font-size="42" font-weight="900" letter-spacing="-1.8">MAKE THE IDEA</text>
<text x="120" y="907" fill="#f7f6f1" font-family="Arial,sans-serif" font-size="42" font-weight="900" letter-spacing="-1.8">IMPOSSIBLE TO IGNORE.</text>
<rect x="120" y="956" width="240" height="50" rx="25" fill="url(#red)"/><text x="240" y="988" text-anchor="middle" fill="white" font-family="Arial,sans-serif" font-size="15" font-weight="900">GENERATE MY PROOF →</text>
<rect x="378" y="956" width="150" height="50" rx="25" fill="#fff" fill-opacity=".08" stroke="#fff" stroke-opacity=".16"/><text x="453" y="988" text-anchor="middle" fill="#ddd9d0" font-family="Arial,sans-serif" font-size="14" font-weight="800">9:16 SOCIAL</text>
<text x="120" y="1064" fill="#77756f" font-family="Arial,sans-serif" font-size="13" letter-spacing="1.5">CINEMATIC • FAST PROOF • SHAREABLE • APEX STUDIO</text>
</svg>